<svg width="20" height="22" viewBox="0 0 20 22" fill="none" xmlns="http://www.w3.org/2000/svg">
<path d="M18.9622 9.70636L3.24033 0.696989C3.00863 0.565113 2.7463 0.496552 2.4797 0.498198C2.2131 0.499844 1.95164 0.571638 1.72158 0.706364C1.49617 0.836504 1.30903 1.02374 1.17901 1.24922C1.04899 1.4747 0.980681 1.73046 0.980958 1.99074V20.0095C0.983434 20.4057 1.14256 20.7848 1.4236 21.0641C1.70464 21.3434 2.08475 21.5001 2.48096 21.5001C2.74658 21.4992 3.00771 21.4315 3.24033 21.3032L18.9622 12.2939C19.1951 12.1675 19.3896 11.9806 19.5251 11.7529C19.6607 11.5252 19.7322 11.2651 19.7322 11.0001C19.7322 10.7351 19.6607 10.475 19.5251 10.2473C19.3896 10.0196 19.1951 9.83273 18.9622 9.70636ZM11.4997 12.0595L13.2716 13.8314L5.00283 18.5564L11.4997 12.0595ZM5.00283 3.43449L13.2716 8.16886L11.4997 9.94074L5.00283 3.43449ZM14.6122 13.0532L12.5591 11.0001L14.6122 8.94699L18.2122 11.0001L14.6122 13.0532Z" fill="#F5EEFF"/>
</svg>
